<svg xmlns="http://www.w3.org/2000/svg" width="35" height="32" viewBox="0 0 35 32"><title>phone</title><path fill="#e04a71" d="M34.488 26.931c-.512-.233-6.913-3.982-7.17-3.982-.512 0-.769 0-1.025.233-1.025.238-2.306 1.408-3.075 1.641-.769 0-1.537-.233-2.05-.466-1.281-.471-2.05-1.175-3.07-1.875-1.537-1.171-2.818-2.341-4.099-3.516-1.281-1.166-2.306-2.337-3.587-3.507-.769-.937-1.533-1.875-2.05-2.812-.508-.704-.508-1.171-.508-1.875.252-.704 1.533-1.875 1.789-2.812.256-.229.256-.7.256-.933C9.643 6.794 5.548.937 5.292.47c0-.233-.256-.233-.512-.471h-.512c-.256 0-.512.238-.769.471-.512.7-.769 1.171-1.281 1.637C1.706 3.044.937 3.982.425 4.919-.087 6.323-.087 7.731.169 9.135c.256.933.769 1.87 1.281 2.808a2686.45 2686.45 0 0 1 2.306 3.516c2.05 2.574 4.351 4.682 6.657 7.023 2.306 2.108 4.868 4.216 7.686 6.09 1.281.7 2.302 1.404 3.583 2.108 1.025.466 2.306.933 3.331 1.166 1.537.233 3.07.233 4.607-.233 1.025-.466 2.05-1.171 3.075-1.87.512-.238 1.025-.704 1.537-.937.256-.233.512-.471.769-.704v-.466c-.256-.238-.512-.471-.512-.704z"/></svg>