<?xml version="1.0" encoding="UTF-8"?><!DOCTYPE svg PUBLIC "-//W3C//DTD SVG 1.1//EN" "http://www.w3.org/Graphics/SVG/1.1/DTD/svg11.dtd"><svg xmlns="http://www.w3.org/2000/svg"><symbol id="icon-facebook" viewBox="0 0 33 32"><title>icon-facebook</title><path d="M30.49 0H2.01C1.03 0 .23.8.23 1.78v28.44c0 .98.8 1.78 1.78 1.78h14.26V20.02h-4V15h3.98v-2.22c0-1.68.1-3.46.42-4.28.44-1.1 1.02-2.1 2.14-2.78s2.68-1.02 4.68-1.02c1.08 0 1.52 0 2.78.18v4.38c-.92 0-1.4-.04-2.22-.02-1.4.02-1.96-.18-2.58.72-.38.56-.26 1.32-.26 2.34 0 1.2.06 2.68.06 2.68h5l-1 5.04h-4V32h9.22c.98 0 1.78-1.06 1.78-2.04V1.78c0-.98-.8-1.78-1.78-1.78z"/></symbol><symbol id="icon-insta" viewBox="0 0 31 32"><title>icon-insta</title><path d="M23.831 9.8c-.194-.581-.387-.775-.775-1.162s-.775-.581-1.163-.775c-.387-.194-.969-.388-1.938-.388H11.43c-.969 0-1.55.194-1.938.388-.581.194-.775.387-1.162.775s-.581.775-.775 1.162c-.194.387-.388.969-.388 1.938v8.525c0 .969.194 1.55.388 1.938.194.581.388.775.775 1.163s.775.581 1.162.775c.387.194.969.387 1.938.387h8.525c.969 0 1.55-.194 1.938-.387.581-.194.775-.387 1.163-.775s.581-.775.775-1.163c.194-.387.387-.969.387-1.938v-8.525c0-1.162-.194-1.55-.387-1.938zM15.5 21.425c-3.1 0-5.425-2.519-5.425-5.425s2.519-5.425 5.425-5.425 5.425 2.519 5.425 5.425-2.325 5.425-5.425 5.425zm5.813-9.881c-.775 0-1.356-.581-1.356-1.356s.581-1.356 1.356-1.356 1.356.581 1.356 1.356c-.194.775-.775 1.356-1.356 1.356z"/><path d="M18.988 16a3.49 3.49 0 0 1-6.976 0 3.49 3.49 0 0 1 6.976 0z"/><path d="M29.063.5H1.938C.775.5 0 1.275 0 2.437v27.125C0 30.725.969 31.5 1.938 31.5h27.125c1.163 0 1.938-.969 1.938-1.938V2.437c0-1.163-.969-1.938-1.938-1.938zm-2.907 19.956c0 1.163-.194 1.938-.581 2.519-.194.775-.581 1.356-1.163 1.938s-1.163.969-1.938 1.163c-.775.194-1.55.387-2.519.581s-1.55 0-4.456 0h-4.456c-1.162 0-1.938-.194-2.519-.581-.775-.194-1.356-.581-1.938-1.163s-.969-1.163-1.162-1.938c-.194-.581-.388-1.55-.581-2.519s0-1.55 0-4.456v-4.456c0-1.162.194-1.938.581-2.519.194-.775.581-1.356 1.162-1.938s1.162-.969 1.938-1.162c.775-.194 1.55-.388 2.519-.581s1.55 0 4.456 0h4.456c1.163 0 1.938.194 2.519.581.775.194 1.356.581 1.938 1.162s.969 1.162 1.163 1.938c.194.581.387 1.55.581 2.519v8.913z"/></symbol><symbol id="icon-linkedin" viewBox="0 0 32 32"><title>icon-linkedin</title><path d="M29.532.25H1.968C.984.25 0 1.038 0 2.218v27.564c0 .984.788 1.968 1.968 1.968h27.564c.984 0 1.968-.788 1.968-1.968V2.218c0-1.182-.788-1.968-1.968-1.968zM9.843 27.815H3.936v-15.75h5.907v15.75zm-2.952-17.72c-1.772 0-2.953-1.378-2.953-2.953S5.12 4.189 6.891 4.189s2.953 1.182 2.953 2.953c.197 1.575-.984 2.953-2.953 2.953zm20.673 17.72h-5.907v-9.843s-.198-1.968-1.968-1.968-1.968 1.968-1.968 1.968v9.843h-5.907v-15.75h5.907v2.166c.591-.984 1.575-2.166 4.332-2.166 3.15 0 5.513 1.773 5.513 6.3v9.45z"/></symbol><symbol id="icon-password-eye-pink" viewBox="0 0 59 32"><title>icon-password-eye-pink</title><path fill="none" stroke="#e04a71" stroke-width="3.556" stroke-linecap="round" stroke-linejoin="round" d="M56.889 15.992c-27.477 32.018-55.111 0-55.111 0v.016s27.634-32.019 55.111 0v-.016z"/><path fill="none" stroke="#e04a71" stroke-width="3.556" d="M39.111 16l.001.094c0 4.91-3.98 8.89-8.89 8.89s-8.89-3.98-8.89-8.89l.001-.099V16a8.89 8.89 0 0 1 17.778-.005V16z"/></symbol><symbol id="icon-password-eye" viewBox="0 0 59 32"><title>icon-password-eye</title><path fill="none" opacity=".175" stroke="#231f20" stroke-width="3.556" stroke-linecap="round" stroke-linejoin="round" d="M56.889 15.992c-27.477 32.018-55.111 0-55.111 0v.016s27.634-32.019 55.111 0v-.016z"/><path fill="none" opacity=".245" stroke="#4a4a4a" stroke-width="3.556" d="M39.111 16l.001.094c0 4.91-3.98 8.89-8.89 8.89s-8.89-3.98-8.89-8.89l.001-.099V16a8.89 8.89 0 0 1 17.778-.005V16z"/></symbol><symbol id="icon-pencel" viewBox="0 0 32 32"><title>pencel</title><path fill="#4a4a4a" d="M4.367 21.834L21.083 5.083l5.834 5.834-16.751 16.716-5.8-5.8zM26.2 0L32 5.8l-3.616 3.65-5.834-5.834L26.2 0zM2.9 23.267l5.834 5.834-8.733 2.9 2.9-8.733z"/></symbol><symbol id="icon-phone" viewBox="0 0 35 32"><title>phone</title><path fill="#e04a71" d="M34.488 26.931c-.512-.233-6.913-3.982-7.17-3.982-.512 0-.769 0-1.025.233-1.025.238-2.306 1.408-3.075 1.641-.769 0-1.537-.233-2.05-.466-1.281-.471-2.05-1.175-3.07-1.875-1.537-1.171-2.818-2.341-4.099-3.516-1.281-1.166-2.306-2.337-3.587-3.507-.769-.937-1.533-1.875-2.05-2.812-.508-.704-.508-1.171-.508-1.875.252-.704 1.533-1.875 1.789-2.812.256-.229.256-.7.256-.933C9.643 6.794 5.548.937 5.292.47c0-.233-.256-.233-.512-.471h-.512c-.256 0-.512.238-.769.471-.512.7-.769 1.171-1.281 1.637C1.706 3.044.937 3.982.425 4.919-.087 6.323-.087 7.731.169 9.135c.256.933.769 1.87 1.281 2.808a2686.45 2686.45 0 0 1 2.306 3.516c2.05 2.574 4.351 4.682 6.657 7.023 2.306 2.108 4.868 4.216 7.686 6.09 1.281.7 2.302 1.404 3.583 2.108 1.025.466 2.306.933 3.331 1.166 1.537.233 3.07.233 4.607-.233 1.025-.466 2.05-1.171 3.075-1.87.512-.238 1.025-.704 1.537-.937.256-.233.512-.471.769-.704v-.466c-.256-.238-.512-.471-.512-.704z"/></symbol><symbol id="icon-pinterest" viewBox="0 0 32 32"><title>icon-pinterest</title><path d="M.094 2v28c0 1.1.9 2 2 2h28c1.1 0 2-.9 2-2V2c0-1.1-.9-2-2-2h-28c-1.1 0-2 .9-2 2zm28.9 13.8c0 1.3-.2 2.5-.5 3.7-.8-.5-1.8-1-2.8-1.3-.6-.2-3.6-.9-3.6-.9.9-.5 1.6-1.8 1.6-3.2 0-4.2-3.8-7-8.9-7-3.9 0-7.5 3.3-7.5 8.2 0 6.2 4.4 9.3 8.1 9.3 2.2 0 4.2-.8 5-2.7.1-.3 0-.6-.3-.7-.2-.1-.8-.2-1-.3-.3-.1-.4-.1-.7.2-.6.5-1.4.9-2.6.9-3.3 0-6.2-2.5-6.2-6.4 0-3.5 2.1-5.4 5-5.4 3.8 0 6.9 1.7 6.9 4.1 0 1.4-1.1 2.4-2.5 2.1-1.6-.4-3.4-1.1-4.6-1.1-1.1 0-2 .6-2 1.8 0 1.4 1.4 2.5 3.4 2.5 1.2 0 2.1-.4 2.1-.4s6 1.4 7.1 1.7c1 .2 2.1.3 3 .2-2 4.6-6.6 7.8-11.9 7.8-7.2 0-13-5.8-13-13s5.8-13 13-13c7.1-.2 12.9 5.7 12.9 12.9z"/></symbol><symbol id="icon-search" viewBox="0 0 32 32"><title>icon-search</title><path fill="none" stroke="#000" stroke-width="3.368" d="M23.916 13.083c0 5.983-4.85 10.833-10.833 10.833S2.25 19.066 2.25 13.083C2.25 7.1 7.1 2.25 13.083 2.25S23.916 7.1 23.916 13.083z"/><path fill="none" stroke="#000" stroke-width="3.368" stroke-linecap="square" d="M19.75 19.75l10 10"/></symbol><symbol id="icon-tick-red" viewBox="0 0 32 32"><title>tick-red</title><path fill="#e04971" d="M32 16c0 8.837-7.163 16-16 16S0 24.837 0 16 7.163 0 16 0s16 7.163 16 16z"/><path fill="#fff" d="M7.006 14.343l9.051 9.051-2.263 2.263-9.051-9.051z"/><path fill="#fff" d="M12 23.508L26.708 8.8l2.263 2.263-14.708 14.708z"/></symbol><symbol id="icon-tick" viewBox="0 0 36 32"><title>tick</title><path fill="#5b8f22" d="M15.377 32L.004 16.557l3.699-3.716 10.934 10.983L31.284-.001l4.275 2.973z"/></symbol><symbol id="icon-twitter" viewBox="0 0 33 32"><title>icon-twitter</title><path d="M30.55 0H2.05c-1 0-1.8.8-1.8 1.7v28.5c0 1 .8 1.8 1.8 1.8h28.5c1 0 1.7-.6 1.7-1.6V1.8c0-1-.7-1.8-1.7-1.8zm-6.6 12.4c-.6 4.6-3.4 7.6-6.6 8.9-1.7.7-3.6 1-5.9.6-2.2-.4-3.9-1.3-5.2-2.5 2 .5 3.8.2 5.1-.4.2-.1.5-.2.5-.3-1.8-.4-2.7-1.6-3-3.1.5.1 1.2.3 1.6.1-1.6-.7-2.6-2-2.3-4.1.4.3.8.6 1.5.7-.6-.7-1.3-1.9-1.1-3.3.1-.7.4-1.3.8-1.8 1.5 2.3 3.5 4.3 7.1 5 0-2.5 1.5-3.8 3.4-4.1.9-.1 1.2 0 1.9.3.5.2.9.5 1.2.9.2.2.3.3.5.4.1.1 1.7-.2 2.3-.3-.7.7-1.7 1.5-1.7 1.6 1-.1 1.4-.2 2-.2-.8.6-1.2 1-2.1 1.6z"/></symbol><symbol id="icon-youtube" viewBox="0 0 32 32"><title>icon-youtube</title><path d="M30.25 0H1.75c-1 0-1.8.8-1.8 1.8v28.4c0 1 .8 1.8 1.8 1.8h28.5c1 0 1.8-1 1.8-2V1.8c0-1-.8-1.8-1.8-1.8zm-4.2 22c0 1-.8 2-1.8 2H7.85c-1 0-1.8-.8-1.8-1.8V9.9c0-1 .8-1.9 1.8-1.9h16.4c1 0 1.8.9 1.8 1.9V22z"/><path d="M12.05 12v8l8-4z"/></symbol></svg>