<svg xmlns="http://www.w3.org/2000/svg" width="31" height="32" viewBox="0 0 31 32"><title>icon-insta</title><path d="M23.831 9.8c-.194-.581-.387-.775-.775-1.162s-.775-.581-1.163-.775c-.387-.194-.969-.388-1.938-.388H11.43c-.969 0-1.55.194-1.938.388-.581.194-.775.387-1.162.775s-.581.775-.775 1.162c-.194.387-.388.969-.388 1.938v8.525c0 .969.194 1.55.388 1.938.194.581.388.775.775 1.163s.775.581 1.162.775c.387.194.969.387 1.938.387h8.525c.969 0 1.55-.194 1.938-.387.581-.194.775-.387 1.163-.775s.581-.775.775-1.163c.194-.387.387-.969.387-1.938v-8.525c0-1.162-.194-1.55-.387-1.938zM15.5 21.425c-3.1 0-5.425-2.519-5.425-5.425s2.519-5.425 5.425-5.425 5.425 2.519 5.425 5.425-2.325 5.425-5.425 5.425zm5.813-9.881c-.775 0-1.356-.581-1.356-1.356s.581-1.356 1.356-1.356 1.356.581 1.356 1.356c-.194.775-.775 1.356-1.356 1.356z"/><path d="M18.988 16a3.49 3.49 0 0 1-6.976 0 3.49 3.49 0 0 1 6.976 0z"/><path d="M29.063.5H1.938C.775.5 0 1.275 0 2.437v27.125C0 30.725.969 31.5 1.938 31.5h27.125c1.163 0 1.938-.969 1.938-1.938V2.437c0-1.163-.969-1.938-1.938-1.938zm-2.907 19.956c0 1.163-.194 1.938-.581 2.519-.194.775-.581 1.356-1.163 1.938s-1.163.969-1.938 1.163c-.775.194-1.55.387-2.519.581s-1.55 0-4.456 0h-4.456c-1.162 0-1.938-.194-2.519-.581-.775-.194-1.356-.581-1.938-1.163s-.969-1.163-1.162-1.938c-.194-.581-.388-1.55-.581-2.519s0-1.55 0-4.456v-4.456c0-1.162.194-1.938.581-2.519.194-.775.581-1.356 1.162-1.938s1.162-.969 1.938-1.162c.775-.194 1.55-.388 2.519-.581s1.55 0 4.456 0h4.456c1.163 0 1.938.194 2.519.581.775.194 1.356.581 1.938 1.162s.969 1.162 1.163 1.938c.194.581.387 1.55.581 2.519v8.913z"/></svg>