<svg xmlns="http://www.w3.org/2000/svg" width="33" height="32" viewBox="0 0 33 32"><title>icon-twitter</title><path d="M30.55 0H2.05c-1 0-1.8.8-1.8 1.7v28.5c0 1 .8 1.8 1.8 1.8h28.5c1 0 1.7-.6 1.7-1.6V1.8c0-1-.7-1.8-1.7-1.8zm-6.6 12.4c-.6 4.6-3.4 7.6-6.6 8.9-1.7.7-3.6 1-5.9.6-2.2-.4-3.9-1.3-5.2-2.5 2 .5 3.8.2 5.1-.4.2-.1.5-.2.5-.3-1.8-.4-2.7-1.6-3-3.1.5.1 1.2.3 1.6.1-1.6-.7-2.6-2-2.3-4.1.4.3.8.6 1.5.7-.6-.7-1.3-1.9-1.1-3.3.1-.7.4-1.3.8-1.8 1.5 2.3 3.5 4.3 7.1 5 0-2.5 1.5-3.8 3.4-4.1.9-.1 1.2 0 1.9.3.5.2.9.5 1.2.9.2.2.3.3.5.4.1.1 1.7-.2 2.3-.3-.7.7-1.7 1.5-1.7 1.6 1-.1 1.4-.2 2-.2-.8.6-1.2 1-2.1 1.6z"/></svg>