<svg xmlns="http://www.w3.org/2000/svg" width="32" height="32" viewBox="0 0 32 32"><title>icon-linkedin</title><path d="M29.532.25H1.968C.984.25 0 1.038 0 2.218v27.564c0 .984.788 1.968 1.968 1.968h27.564c.984 0 1.968-.788 1.968-1.968V2.218c0-1.182-.788-1.968-1.968-1.968zM9.843 27.815H3.936v-15.75h5.907v15.75zm-2.952-17.72c-1.772 0-2.953-1.378-2.953-2.953S5.12 4.189 6.891 4.189s2.953 1.182 2.953 2.953c.197 1.575-.984 2.953-2.953 2.953zm20.673 17.72h-5.907v-9.843s-.198-1.968-1.968-1.968-1.968 1.968-1.968 1.968v9.843h-5.907v-15.75h5.907v2.166c.591-.984 1.575-2.166 4.332-2.166 3.15 0 5.513 1.773 5.513 6.3v9.45z"/></svg>