<?xml version="1.0" encoding="UTF-8"?>
<svg width="107px" height="137px" viewBox="0 0 107 137" version="1.1" xmlns="http://www.w3.org/2000/svg" xmlns:xlink="http://www.w3.org/1999/xlink">
    <!-- Generator: Sketch 50.2 (55047) - http://www.bohemiancoding.com/sketch -->
    <title>philips</title>
    <desc>Created with Sketch.</desc>
    <defs></defs>
    <g id="Page-1" stroke="none" stroke-width="1" fill="none" fill-rule="evenodd">
        <g id="Checkout-02" transform="translate(-135.000000, -1106.000000)" fill="#FEFEFE">
            <g id="Group-2" transform="translate(0.000000, 1040.000000)">
                <g id="Group">
                    <path d="M228,173 C224.191823,173.46411 218.405893,174.206214 217.009208,174.590812 C215.587182,174.978944 214.200516,175.881249 213.593517,178.000368 C213.194549,179.393286 212.457901,185.191121 212,189 C218.544383,185.045645 224.046851,179.542884 228,173 Z M188.392943,196 C196.482236,196 204.083562,193.869959 210.692782,190.132508 C210.260252,186.406263 209.44832,179.727102 209.02272,178.217021 C208.433116,176.094648 207.072004,175.190959 205.68375,174.802231 C203.589819,174.215305 191.533838,172.799013 191.533838,172.799013 L191.533838,171.949592 C191.533838,171.949592 203.589819,170.533301 205.68375,169.944605 C207.072004,169.555287 208.433116,168.657497 209.02272,166.529816 C209.58807,164.51893 210.864293,153.213964 211,152 C202.732266,153.56317 197.063178,157.459299 189.95675,161.170796 C182.401045,165.117653 175.029555,167.947876 165.438244,167.947876 C156.979943,167.947876 149.456,165.140069 144,161.692836 C149.459465,181.48906 167.266536,196 188.392943,196 Z M143,96 L147.867068,96 L147.867068,92.0281262 L149.600715,92.0281262 C154.133339,92.0281262 157,89.5898816 157,85.34003 C157,80.6714301 153.933696,79 148.934103,79 C146.999675,79 144.667669,79.1389889 143,79.3480661 L143,96 Z M159,95 L163.932557,95 L163.932557,88.7072945 L169.067443,88.7072945 L169.067443,95 L174,95 L174,79 L169.067443,79 L169.067443,85.3594792 L163.932557,85.3594792 L163.932557,79 L159,79 L159,95 Z M178,95 L183,95 L183,79 L178,79 L178,95 Z M187,95 L196.231458,95 L197,91.7863028 L192.105317,91.7863028 L192.105317,79 L187,79 L187,95 Z M198,95 L203,95 L203,79 L198,79 L198,95 Z M207,96 L211.865361,96 L211.865361,92.0281262 L213.599009,92.0281262 C218.132201,92.0281262 221,89.5898816 221,85.34003 C221,80.6714301 217.93199,79 212.932396,79 C211.000244,79 208.664825,79.1389889 207,79.3480661 L207,96 Z M188.72187,103 C184.820542,103 181.034045,103.491335 177.416042,104.412298 C177.609348,106.048143 178.159838,110.588338 178.429313,111.535498 C178.7588,112.695142 179.510675,113.188224 180.281593,113.401874 C181.43393,113.722057 187.924409,114.463135 187.924409,114.463135 L187.924409,114.928274 C187.924409,114.928274 181.43393,115.701952 180.281593,116.022135 C179.510675,116.235203 178.7588,116.728867 178.429313,117.887929 C178.172533,118.790263 177.660127,122.9573 177.44547,124.76255 C181.284478,125.276007 185.407386,125.753953 185.407386,125.753953 L185.407386,126.592251 C185.407386,126.592251 173.358338,127.990577 171.275245,128.569235 C169.882862,128.952873 168.525678,129.844728 167.930756,131.939307 C167.381997,133.874959 166.179458,144.412474 166,146 C174.484709,144.440418 181.744951,140.000934 187.193883,137.345744 C194.941143,133.571659 202.03693,130.478691 211.715522,130.478691 C220.129833,130.478691 227.555684,133.1985 233,136.579633 C227.454126,117.185273 209.731102,103 188.72187,103 Z M230.065847,91.1522528 C230.065847,92.1766297 229.33326,92.722576 227.533645,92.722576 C225.933103,92.722576 223.466311,92.1766297 222,91.425226 L222.532377,95.1804985 C223.999256,95.7264448 225.998512,96 227.599624,96 C231.666958,96 235,94.6339701 235,90.5370446 C235,85.0764174 227.334004,86.0996302 227.334004,83.5060942 C227.334004,82.6184949 228.200254,82.2075801 229.600018,82.2075801 C231.132307,82.2075801 232.800534,82.5498151 233.932972,83.0288277 L233.53312,79.4772665 C232.26702,79.2042933 231.132307,79 229.066503,79 C225.1334,79 222.465261,80.5866201 222.465261,83.915845 C222.465261,89.6506094 230.065847,88.490037 230.065847,91.1522528 Z M212,152.485832 C212.11038,153.434805 213.452744,164.941176 214.03847,166.950835 C214.649715,169.049514 216.046082,169.935067 217.478056,170.319078 C219.000826,170.732181 225.703744,171.557223 229.451325,172 C232.333075,166.88916 234.260572,161.190667 235,155.133182 C229.775937,153.071158 223.770312,152 218.841783,152 C216.344583,152 214.085352,152.173969 212,152.485832 Z M159.245387,123.41165 C160.599902,123.015313 161.929052,122.101937 162.504002,119.935295 C162.878847,118.546915 163.560332,112.880498 164,109 C157.885799,112.984987 152.733231,118.480258 149,125 C152.640224,124.524996 157.937094,123.795977 159.245387,123.41165 Z M143,143.923575 C148.028916,145.974721 153.793883,147 158.560415,147 C160.813351,147 162.9572,146.798711 165,146.452635 C164.8157,144.768165 163.624354,134.026868 163.076622,132.076366 C162.490996,129.958712 161.137168,129.057032 159.757503,128.669168 C158.308941,128.261882 152.067436,127.454372 148.403257,127 C145.619239,132.12816 143.742941,137.844884 143,143.923575 Z M175.99596,117.971229 C175.660884,116.770312 174.886169,116.258821 174.094819,116.03806 C173.153161,115.776283 168.79539,115.221968 167,115 C167.333294,117.513421 167.670746,119.76989 167.897695,120.579347 C168.510219,122.755594 169.907557,123.67302 171.341136,124.071114 C172.157438,124.30032 174.460789,124.652573 177,125 C176.773051,123.083117 176.257961,118.89167 175.99596,117.971229 Z M175.956584,111.094783 C176.231644,110.159416 176.781765,105.790017 177,104 C173.118927,105.018458 169.430095,106.499852 166,108.380082 C166.19224,109.9689 166.449165,112.03015 166.713948,114 C168.482798,113.797021 173.048802,113.259303 174.022093,112.997567 C174.827325,112.77975 175.61563,112.277049 175.956584,111.094783 Z M142.348794,155.408377 C148.229969,159.148924 156.417029,161 163.276458,161 C173.66925,161 179.926005,157.908668 186.778446,154.49331 C196.197642,149.79872 204.01611,144.847586 216.289131,144.911576 C223.718044,144.950553 230.28225,146.892379 235,149.397324 C234.991848,147.441536 234.863743,145.514252 234.620926,143.622455 C228.74441,139.908086 220.584135,138 213.751492,138 C203.359864,138 197.119414,141.17452 190.260567,144.57708 C181.459186,148.944154 173.033385,154.19139 160.799378,154.19139 C153.347755,154.19139 142,149.635253 142,149.652123 C142,151.58057 142.119953,153.541012 142.348794,155.408377 Z M242,68.9458099 L242,149.208041 C242,178.843542 217.995094,203 188.501742,203 C158.494448,203 135,178.843542 135,149.208041 L135,68.9458099 C141.966975,68.0827249 164.301712,66 188.502904,66 C212.163439,66 234.815834,67.9543418 242,68.9458099 Z M201.535363,182.010731 C201.275429,181.106178 200.68446,176 200.68446,176 L200.317289,176 C200.317289,176 199.725736,181.106178 199.465803,182.010731 C199.209366,182.917032 198.617813,183.299369 198.012856,183.465476 C197.101923,183.716093 192,184.319323 192,184.319323 L192,184.68126 C192,184.68126 197.101923,185.28449 198.012856,185.533941 C198.617813,185.700048 199.209366,186.084716 199.465803,186.988103 C199.725736,187.892656 200.317289,193 200.317289,193 L200.68446,193 C200.68446,193 201.275429,187.892656 201.535363,186.988103 C201.794131,186.084716 202.385101,185.700048 202.991224,185.533941 C203.896911,185.28449 209,184.68126 209,184.68126 L209,184.319323 C209,184.319323 203.896911,183.716093 202.991224,183.465476 C202.385101,183.299369 201.794131,182.917032 201.535363,182.010731 Z M216,85.3233724 C216,83.2020324 214.953806,82 212.739633,82 C212.508136,82 212.261942,82 212,82.0180847 L212,89 L212.739633,89 C215.07664,89 216,87.51464 216,85.3233724 Z M148.739108,89 L148,89 L148,82.0180847 C148.261417,82 148.508136,82 148.739108,82 C150.953806,82 152,83.2020324 152,85.3233724 C152,87.51464 151.076115,89 148.739108,89 Z" id="philips"></path>
                </g>
            </g>
        </g>
    </g>
</svg>