<?xml version="1.0" encoding="UTF-8"?>
<svg width="79px" height="14px" viewBox="0 0 79 14" version="1.1" xmlns="http://www.w3.org/2000/svg" xmlns:xlink="http://www.w3.org/1999/xlink">
    <!-- Generator: Sketch 49.2 (51160) - http://www.bohemiancoding.com/sketch -->
    <title>Fill 1</title>
    <desc>Created with Sketch.</desc>
    <defs></defs>
    <g id="Page-1" stroke="none" stroke-width="1" fill="none" fill-rule="evenodd">
        <g id="Homepage" transform="translate(-260.000000, -14.000000)" fill="#0B5ED7">
            <path d="M268.021946,19.1725077 C268.021946,20.9155315 267.149966,22.0963661 264.941032,22.0963661 L264.243404,22.0963661 L264.243404,16.5440735 C264.49055,16.530175 264.723093,16.530175 264.941032,16.530175 C267.033806,16.530175 268.021946,17.4858321 268.021946,19.1725077 Z M265.754932,24.5139524 C269.707825,24.5139524 272.207381,22.5461821 272.207381,19.116375 C272.207381,15.3493405 269.533474,14 265.173575,14 C263.487807,14 261.453225,14.1122655 260,14.2810946 L260,27.7187976 L264.243404,27.7187976 L264.243404,24.5139524 L265.754932,24.5139524 Z M322.607183,19.1725077 C322.607183,20.9155315 321.735203,22.0963661 319.526158,22.0963661 L318.828642,22.0963661 L318.828642,16.5440735 C319.075565,16.530175 319.308219,16.530175 319.526158,16.530175 C321.618821,16.530175 322.607183,17.4858321 322.607183,19.1725077 Z M320.339947,24.5139524 C324.29284,24.5139524 326.792619,22.5461821 326.792619,19.116375 C326.792619,15.3493405 324.118488,14 319.75859,14 C318.072933,14 316.038351,14.1122655 314.585126,14.2810946 L314.585126,27.7187976 L318.828642,27.7187976 L318.828642,24.5139524 L320.339947,24.5139524 Z M332.315008,17.710794 C332.315008,16.9797756 333.070716,16.6424405 334.291287,16.6424405 C335.628464,16.6424405 337.081689,16.9235351 338.069829,17.3172185 L337.721126,14.3934679 C336.616604,14.1686137 335.628464,14 333.826313,14 C330.396586,14 328.071381,15.3071062 328.071381,18.0480214 C328.071381,22.7709286 334.698293,21.8151637 334.698293,24.0080036 C334.698293,24.8512875 334.058856,25.3011036 332.48936,25.3011036 C331.094214,25.3011036 328.943361,24.8512875 327.664487,24.2328577 L328.129573,27.3251143 C329.408446,27.7751458 331.152294,28 332.547439,28 C336.093438,28 339,26.8755137 339,23.501947 C339,19.0040018 332.315008,19.8472857 332.315008,17.710794 Z M307.144203,27.7187976 L311.387719,27.7187976 L311.387719,14.2810946 L307.144203,14.2810946 L307.144203,27.7187976 Z M289.937598,27.7187976 L294.181002,27.7187976 L294.181002,14.2810946 L289.937598,14.2810946 L289.937598,27.7187976 Z M301.563622,25.0199012 L301.563622,14.2810946 L297.320107,14.2810946 L297.320107,27.7187976 L304.993349,27.7187976 L305.632786,25.0199012 L301.563622,25.0199012 Z M286.798382,14.2810946 L282.554866,14.2810946 L282.554866,19.6225393 L278.136888,19.6225393 L278.136888,14.2810946 L273.893261,14.2810946 L273.893261,27.7187976 L278.136888,27.7187976 L278.136888,22.4338089 L282.554866,22.4338089 L282.554866,27.7187976 L286.798382,27.7187976 L286.798382,14.2810946 Z" id="Fill-1"></path>
        </g>
    </g>
</svg>